HIERARCHY
ROOT Hips
{
	OFFSET 0.000000  0.463670  0.080341
	CHANNELS 6 Xposition Yposition Zposition Zrotation Yrotation Xrotation 
	JOINT LHipJoint
	{
		OFFSET 0 0 0
		CHANNELS 3 Zrotation Yrotation Xrotation
		JOINT LeftUpLeg
		{
			OFFSET 0.949434 -0.248378 0.086503
			CHANNELS 3 Zrotation Yrotation Xrotation
			JOINT LeftLeg
			{
				OFFSET -0.076513 -3.879421 -0.177038
				CHANNELS 3 Zrotation Yrotation Xrotation
				JOINT LeftFoot
				{
					OFFSET -0.188964 -3.680973 -0.122632
					CHANNELS 3 Zrotation Yrotation Xrotation
					JOINT LeftToeBase
					{
						OFFSET 0.055451 -0.524480 1.120382
						CHANNELS 3 Zrotation Yrotation Xrotation
						End Site
						{
							OFFSET 0.007944 -0.006006 0.139660
						}
					}
				}
			}
		}
	}
	JOINT RHipJoint
	{
		OFFSET 0 0 0
		CHANNELS 3 Zrotation Yrotation Xrotation
		JOINT RightUpLeg
		{
			OFFSET -0.949434 -0.248378 0.086503
			CHANNELS 3 Zrotation Yrotation Xrotation
			JOINT RightLeg
			{
				OFFSET 0.076513 -3.879421 -0.177038
				CHANNELS 3 Zrotation Yrotation Xrotation
				JOINT RightFoot
				{
					OFFSET 0.188964 -3.680973 -0.122632
					CHANNELS 3 Zrotation Yrotation Xrotation
					JOINT RightToeBase
					{
						OFFSET -0.055451 -0.524480 1.120382
						CHANNELS 3 Zrotation Yrotation Xrotation
						End Site
						{
							OFFSET -0.007944 -0.006006 0.139660
						}
					}
				}
			}
		}
	}
	JOINT LowerBack
	{
		OFFSET 0 0 0
		CHANNELS 3 Zrotation Yrotation Xrotation
		JOINT Spine
		{
			OFFSET 0.000000 0.677144 0.028277
			CHANNELS 3 Zrotation Yrotation Xrotation
			JOINT Spine1
			{
				OFFSET 0.000000 2.156116 -0.508617
				CHANNELS 3 Zrotation Yrotation Xrotation
				JOINT Neck
				{
					OFFSET 0 0 0
					CHANNELS 3 Zrotation Yrotation Xrotation
					JOINT Neck1
					{
						OFFSET 0.000000 1.781871 0.216275
						CHANNELS 3 Zrotation Yrotation Xrotation
						JOINT Head
						{
							OFFSET 0.000000 1.015906 -0.026879
							CHANNELS 3 Zrotation Yrotation Xrotation
							End Site
							{
								OFFSET 0.000000 0.339197 0.983632
							}
						}
					}
				}
				JOINT LeftShoulder
				{
					OFFSET 0 0 0
					CHANNELS 3 Zrotation Yrotation Xrotation
					JOINT LeftArm
					{
						OFFSET 1.565866 1.184736 0.289545
						CHANNELS 3 Zrotation Yrotation Xrotation
						JOINT LeftForeArm
						{
							OFFSET 1.930940 -0.176441 -0.109244
							CHANNELS 3 Zrotation Yrotation Xrotation
							JOINT LeftHand
							{
								OFFSET 2.263412 -0.058986 0.122483
								CHANNELS 3 Zrotation Yrotation Xrotation
								JOINT LeftFingerBase
								{
									OFFSET 0 0 0
									CHANNELS 3 Zrotation Yrotation Xrotation
									JOINT LeftHandIndex1
									{
										OFFSET 0.944218 0.017559 0.358417
										CHANNELS 3 Zrotation Yrotation Xrotation
										End Site
										{
											OFFSET 0.237801 -0.022714 0.035813
										}
									}
								}
								JOINT LThumb
								{
									OFFSET 0 0 0
									CHANNELS 3 Zrotation Yrotation Xrotation
									End Site
									{
										OFFSET 0.234930 -0.092931 0.244282
									}
								}
							}
						}
					}
				}
				JOINT RightShoulder
				{
					OFFSET 0 0 0
					CHANNELS 3 Zrotation Yrotation Xrotation
					JOINT RightArm
					{
						OFFSET -1.565866 1.184736 0.289545
						CHANNELS 3 Zrotation Yrotation Xrotation
						JOINT RightForeArm
						{
							OFFSET -1.930940 -0.176441 -0.109244
							CHANNELS 3 Zrotation Yrotation Xrotation
							JOINT RightHand
							{
								OFFSET -2.263412 -0.058986 0.122483
								CHANNELS 3 Zrotation Yrotation Xrotation
								JOINT RightFingerBase
								{
									OFFSET 0 0 0
									CHANNELS 3 Zrotation Yrotation Xrotation
									JOINT RightHandIndex1
									{
										OFFSET -0.944218 0.017559 0.358417
										CHANNELS 3 Zrotation Yrotation Xrotation
										End Site
										{
											OFFSET -0.237801 -0.022714 0.035813
										}
									}
								}
								JOINT RThumb
								{
									OFFSET 0 0 0
									CHANNELS 3 Zrotation Yrotation Xrotation
									End Site
									{
										OFFSET -0.234930 -0.092931 0.244282
									}
								}
							}
						}
					}
				}
			}
		}
	}
}
MOTION
Frames: 8
Frame Time: .0083333
1.754263 8.926158 -8.435579 0.000000 0.000000 0.000000 0.000000 0.000000 0.000000 0.000000 0.000000 0.000000 0.000000 0.000000 0.000000 0.000000 0.000000 0.000000 0.000000 0.000000 0.000000 0.000000 0.000000 0.000000 0.000000 0.000000 0.000000 0.000000 0.000000 0.000000 0.000000 0.000000 0.000000 0.000000 0.000000 0.000000 0.000000 0.000000 0.000000 0.000000 0.000000 0.000000 0.000000 0.000000 0.000000 0.000000 0.000000 0.000000 0.000000 0.000000 0.000000 0.000000 0.000000 0.000000 0.000000 0.000000 0.000000 0.000000 0.000000 0.000000 0.000000 0.000000 0.000000 0.000000 0.000000 0.000000 0.000000 0.000000 0.000000 0.000000 0.000000 0.000000 0.000000 0.000000 0.000000 0.000000 0.000000 0.000000 0.000000 0.000000 0.000000 0.000000 0.000000 0.000000 0.000000 0.000000 0.000000 0.000000 0.000000 0.000000 0.000000 0.000000 0.000000 0.000000 0.000000 0.000000
1.754263 8.926158 -8.435579 1.556600 -7.235900 3.006100 0.000000 0.000000 0.000000 7.189900 -8.420200 -25.463600 4.959100 13.337500 40.645500 0.359000 -15.205900 -14.244900 3.114300 10.877800 31.868900 0.000000 0.000000 0.000000 1.266701 8.634000 -7.769000 -4.132000 -12.334100 36.924198 -2.523700 -16.647900 -39.523399 -5.377800 -13.797100 42.430599 2.459600 1.322900 -6.558600 -1.795200 1.647300 1.010700 -3.072500 0.910200 4.855500 -0.632600 -2.163000 16.569700 2.488500 -2.965300 -17.142300 0.845800 -1.460000 -9.859900 0.000000 0.000000 0.000000 -72.360100 0.238800 29.601500 12.121000 -19.985800 -2.143500 -0.000000 0.000000 -5.693400 -6.317800 -11.373000 1.250700 -7.125000 0.000000 -0.000000 -22.993401 18.910601 15.603500 0.000000 0.000000 0.000000 77.658501 -7.061900 12.087000 -13.653900 22.237700 -2.695700 0.000000 0.000000 6.933800 15.981700 -35.090302 -9.349400 7.125000 -0.000000 -0.000000 53.097500 -57.028801 -19.265100
1.755263 8.925474 -8.433000 2.048700 -7.239900 2.860900 0.000000 0.000000 0.000000 6.578700 -8.297200 -25.311001 4.942300 13.318500 40.572899 0.325000 -15.256000 -13.959600 3.255100 11.097000 32.607601 0.000000 0.000000 0.000000 0.660200 8.482500 -7.767400 -4.148600 -12.355500 37.001499 -3.756200 -10.794700 -41.388000 -0.400700 4.064000 -11.256900 2.156300 1.427400 -6.429400 -2.100800 1.826000 0.783600 -3.204900 0.988100 4.559200 -0.363700 -2.127300 17.475800 2.582600 -2.913000 -17.372801 0.839800 -1.437600 -10.088400 0.000000 -0.000000 0.000000 -72.015900 0.924300 31.737600 12.599700 -20.697800 -2.309900 -0.000000 0.000000 -8.589100 -3.134900 -10.065300 0.548400 -7.125000 0.000000 -0.000000 -21.093300 20.144501 13.470800 0.000000 -0.000000 0.000000 78.055199 -7.772600 11.894100 -13.608400 22.172100 -2.678500 0.000000 0.000000 7.730500 12.355000 -30.406900 -6.326300 7.125000 -0.000000 -0.000000 45.265499 -54.461800 -12.437400
1.756684 8.926369 -8.435105 1.633300 -7.404600 3.079500 0.000000 0.000000 0.000000 7.083100 -8.438900 -25.470800 4.957900 13.336200 40.640400 0.352000 -15.205400 -14.180600 3.265200 11.112400 32.660000 0.000000 0.000000 0.000000 1.115299 8.825200 -7.841200 -4.136700 -12.340200 36.946301 -4.514700 -7.093800 -42.941700 -0.135000 2.368400 -6.524800 2.665300 1.552900 -6.508500 -2.067700 1.949500 0.621700 -3.444700 1.058000 4.461000 -0.148100 -1.995000 17.965200 2.564500 -2.723200 -17.718700 0.804700 -1.346800 -10.283500 -0.000000 -0.000000 0.000000 -71.867599 0.999300 32.022400 12.552100 -20.627399 -2.293100 -0.000000 0.000000 -8.540900 -0.849600 -10.438700 0.153900 -7.125000 0.000000 -0.000000 -19.512899 19.785801 12.493900 -0.000000 -0.000000 0.000000 78.229500 -8.095500 11.879900 -13.516000 22.038601 -2.643800 0.000000 0.000000 8.325300 12.633200 -31.543100 -6.687600 7.125000 -0.000000 -0.000000 46.563000 -55.246498 -13.901900
1.756632 8.926789 -8.435579 1.466100 -7.412500 3.159800 0.000000 0.000000 0.000000 7.289500 -8.460700 -25.553101 4.962500 13.341500 40.660599 0.343900 -15.275500 -14.143200 3.337200 11.221800 33.031799 0.000000 0.000000 0.000000 1.308100 8.856500 -7.893300 -4.133400 -12.335900 36.930698 -4.924600 -6.974700 -44.634399 -0.006900 -0.535500 1.471500 2.777100 1.500500 -6.553200 -1.956600 1.865200 0.721800 -3.399100 1.020800 4.583700 -0.149000 -1.891400 17.578100 2.443400 -2.584500 -17.717400 0.764100 -1.275600 -10.222900 0.000000 0.000000 0.000000 -72.025299 0.683900 31.765301 12.543500 -20.614700 -2.290000 -0.000000 0.000000 -8.401700 1.679600 -11.122000 -0.324100 -7.125000 0.000000 -0.000000 -17.727800 19.102400 11.511300 0.000000 0.000000 0.000000 78.087097 -7.880600 12.452000 -13.348000 21.794901 -2.581100 0.000000 0.000000 8.940200 9.983800 -29.742599 -4.991100 7.125000 -0.000000 -0.000000 42.605000 -54.417500 -11.420800
1.756737 8.927105 -8.435895 1.391500 -7.416800 3.212500 0.000000 0.000000 0.000000 7.384600 -8.467300 -25.627300 4.974500 13.355000 40.712399 0.339800 -15.315300 -14.126300 3.360000 11.256200 33.148899 0.000000 0.000000 0.000000 1.393299 8.897700 -7.905600 -4.122800 -12.322100 36.881199 -5.380600 -5.600700 -45.978298 -0.002600 0.332000 -0.912100 2.848000 1.485100 -6.570100 -1.925000 1.837200 0.743200 -3.408700 1.009100 4.614500 -0.097800 -1.796800 17.464500 2.383900 -2.456800 -17.734301 0.736700 -1.211000 -10.212800 -0.000000 0.000000 0.000000 -72.060303 0.567400 31.901100 12.588700 -20.681601 -2.306000 -0.000000 0.000000 -8.638200 4.081000 -11.834800 -0.838300 -7.125000 0.000000 -0.000000 -16.033001 18.358200 10.589800 -0.000000 0.000000 0.000000 78.074600 -7.884200 12.805700 -13.231400 21.625401 -2.537900 0.000000 0.000000 9.592100 8.217500 -28.604500 -3.955100 7.125000 -0.000000 -0.000000 40.080700 -53.867100 -9.972300
1.756474 8.927421 -8.436526 1.316000 -7.398200 3.259800 0.000000 0.000000 0.000000 7.482600 -8.468600 -25.691700 4.978700 13.359700 40.730400 0.337900 -15.324000 -14.114200 3.356600 11.251000 33.131302 0.000000 0.000000 0.000000 1.491899 8.947300 -7.920200 -4.118800 -12.316900 36.862301 -5.721500 -4.996300 -47.131001 -0.001200 -0.222000 0.610100 2.890500 1.443700 -6.587200 -1.869600 1.775700 0.801900 -3.380800 0.980900 4.679900 -0.093600 -1.708800 17.207701 2.321900 -2.340700 -17.672899 0.715100 -1.151200 -10.153600 0.000000 0.000000 0.000000 -72.138901 0.370700 31.870399 12.601700 -20.700899 -2.310600 -0.000000 0.000000 -8.662000 5.983900 -12.620500 -1.312000 -7.125000 0.000000 -0.000000 -14.682800 17.529400 9.910800 0.000000 0.000000 0.000000 78.016403 -7.806000 13.209400 -13.129000 21.475901 -2.500300 0.000000 0.000000 10.184400 6.716300 -27.797199 -3.143400 7.125000 -0.000000 -0.000000 38.096199 -53.501598 -8.985100
1.755895 8.927579 -8.437263 1.284400 -7.362600 3.287100 0.000000 0.000000 0.000000 7.530900 -8.466800 -25.743000 4.981400 13.362900 40.742500 0.335600 -15.323000 -14.092000 3.344300 11.232600 33.068501 0.000000 0.000000 0.000000 1.551001 8.993900 -7.918700 -4.116000 -12.313200 36.849201 -5.964500 -4.705100 -47.988400 -0.010100 -0.650100 1.786500 2.878500 1.391800 -6.590000 -1.821100 1.705200 0.868700 -3.330400 0.947000 4.743500 -0.124900 -1.636800 16.924101 2.284800 -2.247700 -17.563700 0.707100 -1.102800 -10.073700 0.000000 -0.000000 0.000000 -72.224602 0.166200 31.836901 12.609200 -20.711901 -2.313200 -0.000000 0.000000 -8.674100 7.344000 -13.192900 -1.684900 -7.125000 0.000000 -0.000000 -13.726500 16.910299 9.416500 0.000000 -0.000000 0.000000 77.955101 -7.719400 13.585600 -13.051100 21.362101 -2.471900 0.000000 0.000000 10.687500 5.372700 -26.996799 -2.444600 7.125000 -0.000000 -0.000000 36.279400 -53.095100 -8.069000
